<svg width="70" height="70" viewBox="0 0 70 70" fill="none" xmlns="http://www.w3.org/2000/svg">
<path d="M35 60C48.8071 60 60 48.8071 60 35C60 21.1929 48.8071 10 35 10C21.1929 10 10 21.1929 10 35C10 48.8071 21.1929 60 35 60Z" fill="white"/>
<path d="M35 70C28.0777 70 21.3108 67.9473 15.5551 64.1014C9.79934 60.2556 5.3133 54.7893 2.66423 48.3939C0.0151649 41.9985 -0.677952 34.9612 0.672531 28.1719C2.02301 21.3825 5.35644 15.1461 10.2513 10.2513C15.1461 5.35644 21.3825 2.02301 28.1719 0.672531C34.9612 -0.677952 41.9985 0.0151649 48.3939 2.66423C54.7893 5.3133 60.2556 9.79934 64.1014 15.5551C67.9473 21.3108 70 28.0777 70 35C69.9894 44.2793 66.2985 53.1756 59.7371 59.7371C53.1756 66.2985 44.2793 69.9894 35 70ZM35 5.00002C29.0666 5.00002 23.2664 6.75948 18.3329 10.0559C13.3994 13.3524 9.55426 18.0377 7.28363 23.5195C5.013 29.0013 4.4189 35.0333 5.57646 40.8527C6.73401 46.6721 9.59124 52.0176 13.7868 56.2132C17.9824 60.4088 23.3279 63.266 29.1473 64.4236C34.9667 65.5811 40.9987 64.987 46.4805 62.7164C51.9623 60.4458 56.6477 56.6006 59.9441 51.6671C63.2405 46.7336 65 40.9335 65 35C64.9907 27.0464 61.8271 19.4211 56.203 13.797C50.5789 8.17296 42.9537 5.00928 35 5.00002Z" fill="white"/>
</svg>
