<svg width="50" height="50" viewBox="0 0 50 50" fill="none" xmlns="http://www.w3.org/2000/svg">
<circle cx="23.2258" cy="25.2258" r="15.4839" fill="white"/>
<path fill-rule="evenodd" clip-rule="evenodd" d="M24.75 0C11.0813 0 0 11.0813 0 24.75C0 38.4188 11.0813 49.5 24.75 49.5C38.4188 49.5 49.5 38.4188 49.5 24.75C49.5 11.0813 38.4188 0 24.75 0ZM35.478 20.565C35.6755 20.3392 35.8259 20.0762 35.9203 19.7914C36.0147 19.5066 36.0512 19.2058 36.0276 18.9067C36.004 18.6076 35.9209 18.3163 35.783 18.0498C35.6452 17.7833 35.4555 17.5471 35.225 17.355C34.9945 17.163 34.7279 17.0189 34.441 16.9314C34.154 16.8439 33.8524 16.8146 33.554 16.8454C33.2556 16.8761 32.9663 16.9662 32.7032 17.1104C32.4401 17.2546 32.2085 17.45 32.022 17.685L22.347 29.2927L17.3407 24.2843C16.9164 23.8744 16.348 23.6476 15.7581 23.6527C15.1682 23.6579 14.6038 23.8945 14.1867 24.3117C13.7695 24.7288 13.5329 25.2932 13.5277 25.8831C13.5226 26.473 13.7494 27.0414 14.1593 27.4657L20.9093 34.2158C21.1303 34.4367 21.395 34.6092 21.6864 34.7221C21.9779 34.8351 22.2896 34.8861 22.6019 34.872C22.9141 34.8578 23.2199 34.7787 23.4999 34.6398C23.7799 34.5008 24.0279 34.3051 24.228 34.065L35.478 20.565Z" fill="#23E71F"/>
</svg>
