<svg width="37" height="37" viewBox="0 0 37 37" fill="none" xmlns="http://www.w3.org/2000/svg">
<path opacity="0.25" d="M18.5 3.70001C26.6585 3.70001 33.3 10.3415 33.3 18.5C33.3 26.6585 26.6585 33.3 18.5 33.3C10.3415 33.3 3.70001 26.6585 3.70001 18.5C3.70001 10.3415 10.3415 3.70001 18.5 3.70001ZM18.611 20.979V24.938C17.7419 24.962 16.8771 24.8087 16.0692 24.4875C15.2613 24.1662 14.5273 23.6838 13.912 23.0695C11.84 20.9975 11.507 17.8895 12.8205 15.429L10.7855 13.394C8.41751 16.983 8.80601 21.8855 11.9695 25.0305C12.8233 25.8942 13.8404 26.5794 14.9616 27.0463C16.0827 27.5132 17.2855 27.7524 18.5 27.75H18.611V31.45L23.8465 26.2145L18.611 20.979ZM25.049 11.951C23.2175 10.1195 20.794 9.25001 18.389 9.26851V5.55001L13.1535 10.7855L18.389 16.021V12.0435H18.5C20.165 12.0435 21.8115 12.6725 23.088 13.9305C25.16 16.0025 25.493 19.1105 24.1795 21.571L26.2145 23.606C27.3842 21.8236 27.9067 19.6936 27.6945 17.5722C27.4824 15.4508 26.5485 13.4665 25.049 11.951Z" fill="white"/>
<path d="M18.5 3.7C26.6585 3.7 33.3 10.3415 33.3 18.5C33.3 26.6585 26.6585 33.3 18.5 33.3C10.3415 33.3 3.7 26.6585 3.7 18.5C3.7 10.3415 10.3415 3.7 18.5 3.7ZM18.5 0C8.288 0 0 8.288 0 18.5C0 28.712 8.288 37 18.5 37C28.712 37 37 28.712 37 18.5C37 8.288 28.712 0 18.5 0ZM18.611 20.979V24.938C17.7419 24.962 16.8771 24.8087 16.0692 24.4875C15.2613 24.1662 14.5273 23.6837 13.912 23.0695C11.84 20.9975 11.507 17.8895 12.8205 15.429L10.7855 13.394C8.4175 16.983 8.806 21.8855 11.9695 25.0305C12.8233 25.8942 13.8404 26.5794 14.9615 27.0463C16.0827 27.5132 17.2855 27.7524 18.5 27.75H18.611V31.45L23.8465 26.2145L18.611 20.979ZM25.049 11.951C23.2175 10.1195 20.794 9.25 18.389 9.2685V5.55L13.1535 10.7855L18.389 16.021V12.0435H18.5C20.165 12.0435 21.8115 12.6725 23.088 13.9305C25.16 16.0025 25.493 19.1105 24.1795 21.571L26.2145 23.606C27.3842 21.8236 27.9067 19.6936 27.6945 17.5722C27.4824 15.4508 26.5485 13.4665 25.049 11.951Z" fill="white"/>
</svg>
